# xmcd
#
# Track frame offsets:
# 150
# 15670
# 32997
# 48410
# 61607
# 78802
# 93912
# 109947
# 127382
# 142951
# 156668
# 172185
# 189947
# 203847
#
# Disc length: 2975 seconds
#
# Revision: 0
# Processed by: cddbd v1.5.2PL0 Copyright (c) Steve Scherf et al.
# Submitted via: Audion 3.0.2 (http://www.panic.com/audion/)
#
DISCID=bf0b9d0e
DTITLE=Rod Stewart - It Had To Be You... - The Great American Songbook
DYEAR=1900
DGENRE=
TTITLE0=You Go To My Head
TTITLE1=They Can't Take That Away From Me
TTITLE2=The Way You Look Tonight
TTITLE3=It Had To Be You
TTITLE4=That Old Feeling
TTITLE5=These Foolish Things
TTITLE6=The Very Thought Of You
TTITLE7=Moonglow
TTITLE8=I'll Be Seeing You
TTITLE9=Every Time We Say Goodbye
TTITLE10=The Nearness Of You
TTITLE11=For All We Know
TTITLE12=We'll Be Together Again
TTITLE13=That's All
EXTD=
EXTT0=
EXTT1=
EXTT2=
EXTT3=
EXTT4=
EXTT5=
EXTT6=
EXTT7=
EXTT8=
EXTT9=
EXTT10=
EXTT11=
EXTT12=
EXTT13=
PLAYORDER=
